<svg width="512" height="512" viewBox="0 0 512 512" fill="none" xmlns="http://www.w3.org/2000/svg">
<g clip-path="url(#clip0_985_800)">
<path d="M427.23 0H84.77C37.9528 0 0 37.9528 0 84.77V427.23C0 474.047 37.9528 512 84.77 512H427.23C474.047 512 512 474.047 512 427.23V84.77C512 37.9528 474.047 0 427.23 0Z" fill="#00AEEF"/>
<path d="M420.512 396.013C413.075 395.644 406.074 392.396 400.989 386.957L334.267 308.148V384.048C334.264 387.219 333.004 390.259 330.763 392.502C328.521 394.745 325.482 396.008 322.311 396.013H149.756C146.585 396.008 143.545 394.745 141.304 392.502C139.062 390.259 137.802 387.218 137.8 384.047V210.929C137.748 209.33 138.033 207.739 138.636 206.257C139.239 204.776 140.147 203.437 141.3 202.329C142.415 201.235 143.736 200.374 145.188 199.797C146.639 199.22 148.191 198.939 149.753 198.969H322.312C323.874 198.939 325.426 199.22 326.877 199.797C328.329 200.374 329.65 201.235 330.765 202.329C331.918 203.437 332.826 204.776 333.429 206.257C334.032 207.739 334.317 209.33 334.265 210.929V282.157L395.452 208.307C400.305 202.079 406.812 198.965 414.975 198.965H443.823C447.122 198.965 449.208 199.839 450.081 201.588C450.967 203.349 450.327 205.588 448.181 208.307L376.218 295.3L453.737 386.961C455.864 389.502 456.504 391.632 455.632 393.394C454.76 395.156 452.66 396.017 449.361 396.017L420.512 396.013ZM109.2 355.037C105.935 355.034 102.806 353.734 100.499 351.424C98.1925 349.113 96.8979 345.982 96.9 342.717V170.3C96.8979 167.035 98.1925 163.904 100.499 161.593C102.806 159.283 105.935 157.983 109.2 157.98H281.3C284.565 157.983 287.695 159.282 290.001 161.593C292.308 163.903 293.602 167.035 293.6 170.3V185.31H136.122C134.56 185.28 133.008 185.561 131.557 186.138C130.105 186.715 128.784 187.576 127.669 188.67C126.516 189.778 125.608 191.117 125.005 192.598C124.402 194.08 124.117 195.671 124.169 197.27V355.037H109.2ZM68.3 314.062C65.0354 314.059 61.9057 312.76 59.5991 310.449C57.2925 308.139 55.9979 305.008 56 301.743V129.32C55.9979 126.055 57.2924 122.924 59.599 120.613C61.9056 118.303 65.0354 117.003 68.3 117H240.4C243.665 117.003 246.795 118.302 249.101 120.613C251.408 122.923 252.702 126.055 252.7 129.32V144.32H95.564C92.2994 144.323 89.1696 145.623 86.863 147.933C84.5564 150.243 83.2619 153.375 83.264 156.64V314.062H68.3Z" fill="white"/>
</g>
<defs>
<clipPath id="clip0_985_800">
<rect width="512" height="512" fill="white"/>
</clipPath>
</defs>
</svg>
